<?xml version="1.0" encoding="UTF-8" standalone="no"?>
<!DOCTYPE svg PUBLIC "-//W3C//DTD SVG 1.1//EN" "http://www.w3.org/Graphics/SVG/1.1/DTD/svg11.dtd">
<!-- Created with Vectornator (http://vectornator.io/) -->
<svg height="100%" stroke-miterlimit="10" style="fill-rule:nonzero;clip-rule:evenodd;stroke-linecap:round;stroke-linejoin:round;" version="1.1" viewBox="0 0 790 140" width="100%" xml:space="preserve" xmlns="http://www.w3.org/2000/svg" xmlns:vectornator="http://vectornator.io" xmlns:xlink="http://www.w3.org/1999/xlink">
<defs>
<clipPath id="TextBounds">
<rect height="183.621" width="835.635" x="-18.7745" y="-28.6216"/>
</clipPath>
<clipPath id="TextBounds_2">
<rect height="203.461" width="20" x="838.823" y="16.6412"/>
</clipPath>
<clipPath id="TextBounds_3">
<rect height="309.691" width="33.9101" x="525.807" y="409.651"/>
</clipPath>
</defs>
<clipPath id="ArtboardFrame">
<rect height="140" width="790" x="0" y="0"/>
</clipPath>
<g clip-path="url(#ArtboardFrame)" id="Ebene-1" vectornator:layerName="Ebene 1">
<g fill="#547bf7" opacity="1" stroke="none">
<path clip-path="url(#TextBounds)" d="M40.1131 106.36L25.7192 134.153L6.65486 134.153L72.0401 7.51645L112.849 134.153L94.5498 134.153L85.9747 106.36L40.1131 106.36ZM47.6929 91.2004L81.0746 91.2004L68.3651 49.167L47.6929 91.2004Z" fill-rule="evenodd"/>
<path clip-path="url(#TextBounds)" d="M150.135 62.0297L149.369 68.6907C156.056 63.0761 162.819 60.2687 169.659 60.2687C176.703 60.2687 182.343 62.2339 186.579 66.1641C190.714 70.0944 192.781 75.4538 192.781 82.2425C192.781 85.9175 192.475 90.3072 191.862 95.4114L187.039 134.153L170.195 134.153L175.401 91.7364C175.605 90.1541 175.745 88.7504 175.822 87.5254C175.899 86.3004 175.937 85.2029 175.937 84.2331C175.937 77.6997 172.415 74.433 165.371 74.433C161.033 74.433 157.306 75.7601 154.193 78.4143C151.641 80.507 149.752 83.0592 148.527 86.0707C147.864 87.6019 147.302 89.4777 146.843 91.6981C146.383 93.9184 145.975 96.4833 145.618 99.3927L141.33 134.153L124.41 134.153L133.291 62.0297L150.135 62.0297Z" fill-rule="evenodd"/>
<path clip-path="url(#TextBounds)" d="M299.204 4.83672L283.279 134.153L266.435 134.153L267.354 126.42C263.168 130.146 259.544 132.672 256.482 133.999C253.47 135.224 249.744 135.837 245.303 135.837C235.197 135.837 226.928 132.494 220.497 125.807C214.066 119.07 210.85 110.392 210.85 99.7755C210.85 88.4441 214.372 79.0268 221.416 71.5236C228.459 64.0204 237.315 60.2687 247.983 60.2687C253.445 60.2687 258.039 61.213 261.765 63.1016C265.644 65.0412 269.702 68.3334 273.938 72.9783L282.284 4.83672L299.204 4.83672ZM271.335 94.952C271.335 88.827 269.447 83.8758 265.669 80.0987C261.892 76.3216 256.941 74.433 250.816 74.433C244.181 74.433 238.693 76.9086 234.355 81.8597C230.016 86.8108 227.847 93.0635 227.847 100.618C227.847 106.998 229.71 112.128 233.436 116.007C237.162 119.835 242.113 121.749 248.289 121.749C254.721 121.749 260.157 119.146 264.598 113.94C269.089 108.836 271.335 102.506 271.335 94.952Z" fill-rule="evenodd"/>
<path clip-path="url(#TextBounds)" d="M387.176 31.0215L375.462 42.1997C369.898 34.033 363.518 29.9496 356.321 29.9496C351.114 29.9496 346.801 31.5574 343.381 34.7731C339.962 37.9887 338.252 42.0211 338.252 46.8701C338.252 50.7493 339.426 54.0926 341.774 56.8999C342.948 58.227 344.67 59.7328 346.942 61.4172C349.213 63.1016 352.059 64.9646 355.478 67.0063C365.636 72.9273 372.425 78.2867 375.844 83.0847C379.315 87.9337 381.051 94.2885 381.051 102.149C381.051 112.357 377.682 120.626 370.944 126.956C364.309 133.285 355.555 136.449 344.683 136.449C335.904 136.449 328.477 134.561 322.403 130.784C319.34 128.895 316.482 126.432 313.828 123.395C311.174 120.358 308.622 116.671 306.172 112.332L319.494 103.297C323.118 109.678 326.665 114.067 330.136 116.466C333.607 118.865 338.124 120.065 343.688 120.065C349.864 120.065 354.7 118.432 358.196 115.165C361.693 111.898 363.441 107.253 363.441 101.23C363.441 97.0958 362.165 93.5994 359.613 90.741C358.337 89.2608 356.435 87.6019 353.909 85.7644C351.382 83.9269 348.179 81.8597 344.3 79.5628C335.419 74.3054 329.217 69.3032 325.695 64.5563C322.326 59.8094 320.642 53.8629 320.642 46.717C320.642 37.1721 323.96 29.2605 330.595 22.9823C337.231 16.653 345.602 13.4884 355.708 13.4884C362.293 13.4884 367.907 14.8155 372.552 17.4697C377.299 20.1239 382.174 24.6412 387.176 31.0215Z" fill-rule="evenodd"/>
<path clip-path="url(#TextBounds)" d="M413.207 104.14C413.207 109.448 415.045 113.812 418.72 117.232C422.446 120.652 427.193 122.362 432.961 122.362C440.872 122.362 446.946 119.401 451.183 113.48L463.816 120.448C459.426 126.369 454.909 130.503 450.264 132.851C445.568 135.25 439.698 136.449 432.655 136.449C421.476 136.449 412.569 133.157 405.934 126.573C399.298 119.988 395.981 111.184 395.981 100.158C395.981 88.6228 399.63 78.9758 406.929 71.2173C414.177 63.5099 423.339 59.6562 434.415 59.6562C445.134 59.6562 453.582 63.1271 459.758 70.0689C466.036 77.0617 469.175 86.428 469.175 98.1677C469.175 99.3927 469.099 101.383 468.946 104.14L413.207 104.14ZM452.025 90.5113C450.239 79.3841 444.088 73.8205 433.573 73.8205C423.62 73.8205 417.138 79.3841 414.126 90.5113L452.025 90.5113Z" fill-rule="evenodd"/>
<path clip-path="url(#TextBounds)" d="M563.502 62.0297L554.62 134.153L537.7 134.153L538.695 126.343C531.447 132.672 523.944 135.837 516.185 135.837C506.64 135.837 498.856 132.596 492.833 126.113C486.81 119.631 483.799 111.235 483.799 100.924C483.799 89.0311 487.244 79.282 494.135 71.6767C501.128 64.0714 510.086 60.2687 521.009 60.2687C526.164 60.2687 530.554 61.1109 534.178 62.7953C537.853 64.4797 541.604 67.3892 545.433 71.5236L546.581 62.0297L563.502 62.0297ZM542.906 96.0239C542.906 89.6436 541.069 84.4628 537.393 80.4815C533.718 76.4492 528.971 74.433 523.153 74.433C516.823 74.433 511.515 76.9086 507.227 81.8597C502.94 86.8618 500.796 92.9869 500.796 100.235C500.796 106.564 502.583 111.745 506.156 115.777C509.729 119.81 514.322 121.826 519.937 121.826C526.164 121.826 531.549 119.299 536.092 114.246C540.635 109.091 542.906 103.017 542.906 96.0239Z" fill-rule="evenodd"/>
<path clip-path="url(#TextBounds)" d="M604.08 62.0297L603.315 68.2314C609.031 62.8209 614.799 60.1156 620.618 60.1156C625.722 60.1156 630.367 61.9787 634.553 65.7048L623.757 79.6393C620.644 76.9851 617.53 75.658 614.416 75.658C612.273 75.658 610.384 76.0791 608.751 76.9213C607.117 77.7635 605.701 79.0906 604.501 80.9026C603.302 82.7146 602.307 85.0498 601.515 87.9082C600.724 90.7666 600.099 94.1864 599.64 98.1677L595.199 134.153L578.278 134.153L587.16 62.0297L604.08 62.0297Z" fill-rule="evenodd"/>
<path clip-path="url(#TextBounds)" d="M699.632 68.997L697.488 86.2238C694.017 81.7831 690.699 78.593 687.535 76.6533C684.421 74.7648 680.746 73.8205 676.509 73.8205C670.078 73.8205 664.795 76.194 660.661 80.9409C656.526 85.6878 654.459 91.7874 654.459 99.2396C654.459 106.232 656.399 111.822 660.278 116.007C664.208 120.244 669.287 122.362 675.514 122.362C681.486 122.362 687.662 119.784 694.043 114.629L691.822 132.468C685.289 135.122 679.062 136.449 673.141 136.449C662.575 136.449 653.974 133.004 647.339 126.113C640.754 119.223 637.462 110.29 637.462 99.3162C637.462 88.0358 641.009 78.6185 648.104 71.0642C655.25 63.4589 664.132 59.6562 674.748 59.6562C683.426 59.6562 691.72 62.7698 699.632 68.997Z" fill-rule="evenodd"/>
<path clip-path="url(#TextBounds)" d="M744.421 4.83672L736.612 68.1548C743.4 62.8974 750.291 60.2687 757.284 60.2687C764.328 60.2687 769.943 62.1318 774.128 65.8579C778.467 69.5329 780.636 74.3564 780.636 80.3284C780.636 81.7576 780.559 83.3782 780.406 85.1902C780.253 87.0022 780.049 89.0566 779.794 91.3535L774.511 134.153L757.59 134.153L762.95 90.4348C763.256 88.0868 763.409 85.9686 763.409 84.08C763.409 77.6487 759.632 74.433 752.078 74.433C741.257 74.433 734.953 81.7576 733.166 96.4067L728.496 134.153L711.576 134.153L727.501 4.83672L744.421 4.83672Z" fill-rule="evenodd"/>
</g>
<g fill="#000000" opacity="1" stroke="none">
<path clip-path="url(#TextBounds_2)" d="M860.487 39.1558L855.843 76.8502L849.357 76.8502L854.002 39.1558L843.552 39.1558L844.288 33.1236L871.221 33.1236L870.484 39.1558L860.487 39.1558Z" fill-rule="evenodd"/>
<path clip-path="url(#TextBounds_2)" d="M849.273 142.921C849.273 144.885 849.952 146.499 851.312 147.764C852.69 149.029 854.446 149.662 856.579 149.662C859.506 149.662 861.752 148.567 863.319 146.377L867.992 148.954C866.369 151.144 864.698 152.673 862.98 153.542C861.243 154.429 859.071 154.873 856.466 154.873C852.331 154.873 849.037 153.655 846.582 151.219C844.128 148.784 842.9 145.527 842.9 141.449C842.9 137.182 844.25 133.613 846.95 130.744C849.631 127.893 853.02 126.467 857.117 126.467C861.082 126.467 864.207 127.751 866.491 130.319C868.814 132.905 869.975 136.37 869.975 140.712C869.975 141.166 869.946 141.902 869.89 142.921L849.273 142.921ZM863.631 137.88C862.97 133.765 860.695 131.707 856.806 131.707C853.124 131.707 850.726 133.765 849.612 137.88L863.631 137.88Z" fill-rule="evenodd"/>
<path clip-path="url(#TextBounds_2)" d="M859.694 216.866L869.295 231.196L862.045 231.196L855.73 221.057L847.12 231.196L839.049 231.196L852.586 216.356L844.628 204.518L851.793 204.518L856.523 212.165L862.895 204.518L870.881 204.518L859.694 216.866Z" fill-rule="evenodd"/>
<path clip-path="url(#TextBounds_2)" d="M852.133 287.497L849.556 308.369L843.297 308.369L845.874 287.497L842.334 287.497L843.042 281.691L846.582 281.691L848.111 269.315L854.37 269.315L852.841 281.691L858.618 281.691L857.91 287.497L852.133 287.497Z" fill-rule="evenodd"/>
</g>
<g fill="#000000" opacity="1" stroke="none">
<path clip-path="url(#TextBounds_3)" d="M550.295 432.165L545.651 469.86L539.165 469.86L543.81 432.165L533.36 432.165L534.096 426.133L561.028 426.133L560.292 432.165L550.295 432.165Z" fill-rule="evenodd"/>
<path clip-path="url(#TextBounds_3)" d="M536.256 535.931C536.256 537.895 536.936 539.509 538.295 540.774C539.673 542.039 541.429 542.671 543.563 542.671C546.489 542.671 548.736 541.576 550.303 539.386L554.976 541.963C553.352 544.153 551.681 545.683 549.963 546.551C548.226 547.439 546.055 547.882 543.449 547.882C539.315 547.882 536.02 546.664 533.566 544.229C531.111 541.793 529.884 538.537 529.884 534.458C529.884 530.191 531.234 526.623 533.934 523.753C536.615 520.902 540.004 519.477 544.101 519.477C548.066 519.477 551.19 520.761 553.475 523.329C555.797 525.915 556.958 529.38 556.958 533.722C556.958 534.175 556.93 534.912 556.873 535.931L536.256 535.931ZM550.614 530.89C549.954 526.774 547.679 524.716 543.789 524.716C540.108 524.716 537.71 526.774 536.596 530.89L550.614 530.89Z" fill-rule="evenodd"/>
<path clip-path="url(#TextBounds_3)" d="M546.678 609.875L556.278 624.205L549.028 624.205L542.713 614.067L534.104 624.205L526.032 624.205L539.569 609.366L531.611 597.528L538.777 597.528L543.506 605.174L549.878 597.528L557.864 597.528L546.678 609.875Z" fill-rule="evenodd"/>
<path clip-path="url(#TextBounds_3)" d="M546.061 680.506L543.484 701.378L537.225 701.378L539.802 680.506L536.262 680.506L536.97 674.701L540.51 674.701L542.04 662.325L548.298 662.325L546.769 674.701L552.547 674.701L551.839 680.506L546.061 680.506Z" fill-rule="evenodd"/>
</g>
</g>
</svg>
