<?xml version="1.0" encoding="UTF-8" standalone="no"?>
<!DOCTYPE svg PUBLIC "-//W3C//DTD SVG 1.1//EN" "http://www.w3.org/Graphics/SVG/1.1/DTD/svg11.dtd">
<!-- Created with Vectornator (http://vectornator.io/) -->
<svg height="100%" stroke-miterlimit="10" style="fill-rule:nonzero;clip-rule:evenodd;stroke-linecap:round;stroke-linejoin:round;" version="1.1" viewBox="0 0 790 140" width="100%" xml:space="preserve" xmlns="http://www.w3.org/2000/svg" xmlns:vectornator="http://vectornator.io" xmlns:xlink="http://www.w3.org/1999/xlink">
<defs>
<clipPath id="TextBounds">
<rect height="183.621" width="835.635" x="-12.1928" y="-16.5552"/>
</clipPath>
<clipPath id="TextBounds_2">
<rect height="203.461" width="20" x="838.823" y="16.6412"/>
</clipPath>
<clipPath id="TextBounds_3">
<rect height="309.691" width="33.9101" x="525.807" y="409.651"/>
</clipPath>
</defs>
<clipPath id="ArtboardFrame">
<rect height="140" width="790" x="0" y="0"/>
</clipPath>
<g clip-path="url(#ArtboardFrame)" id="Ebene-1" vectornator:layerName="Ebene 1">
<g fill="#547bf7" opacity="1" stroke="none">
<path clip-path="url(#TextBounds)" d="M66.6821 22.3215L3.97285 128.674L28.5501 128.674L41.9559 104.99L81.7263 104.99L85.1523 128.674L108.389 128.674L90.6635 22.3215L66.6821 22.3215ZM51.191 87.5629L74.1297 45.2603L74.4276 45.2603L79.641 87.5629L51.191 87.5629Z" fill-rule="evenodd"/>
<path clip-path="url(#TextBounds)" d="M131.626 51.6653L115.688 128.674L136.69 128.674L145.329 87.7119C145.925 85.0307 146.794 82.3992 147.936 79.8174C149.078 77.2355 150.518 74.9516 152.256 72.9655C153.993 70.9795 156.079 69.3658 158.512 68.1246C160.945 66.8833 163.75 66.2627 166.927 66.2627C169.41 66.2627 171.719 67.0074 173.854 68.497C175.989 69.9865 177.056 71.8732 177.056 74.1572C177.056 75.2495 176.883 76.7887 176.535 78.7747C176.187 80.7608 175.914 82.3496 175.716 83.5412L166.332 128.674L187.483 128.674L197.016 83.5412C197.115 82.8461 197.289 81.9276 197.537 80.7856C197.786 79.6436 198.034 78.4272 198.282 77.1362C198.53 75.8453 198.754 74.5792 198.952 73.3379C199.151 72.0966 199.25 71.0788 199.25 70.2844C199.25 56.4814 191.753 49.5799 176.758 49.5799C165.637 49.5799 156.65 53.8499 149.798 62.3899L149.5 62.3899L151.883 51.6653L131.626 51.6653Z" fill-rule="evenodd"/>
<path clip-path="url(#TextBounds)" d="M254.065 65.5179C259.229 65.5179 263.052 67.0322 265.534 70.061C268.017 73.0897 269.258 77.1362 269.258 82.2006C269.258 85.4776 268.787 89.0276 267.843 92.8508C266.9 96.6739 265.46 100.224 263.524 103.501C261.587 106.778 259.179 109.484 256.299 111.619C253.42 113.754 249.994 114.821 246.022 114.821C243.539 114.821 241.354 114.35 239.468 113.406C237.581 112.463 236.017 111.222 234.776 109.682C233.534 108.143 232.591 106.331 231.945 104.246C231.3 102.16 230.977 99.9757 230.977 97.6917C230.977 94.3155 231.424 90.7406 232.318 86.9671C233.212 83.1937 234.602 79.7181 236.489 76.5404C238.375 73.3628 240.783 70.7312 243.713 68.6459C246.642 66.5606 250.093 65.5179 254.065 65.5179ZM262.555 119.141L260.47 128.674L280.877 128.674L303.368 22.3215L282.217 22.3215L273.727 61.943L273.429 61.943C271.741 57.673 268.836 54.545 264.715 52.559C260.594 50.5729 256.299 49.5799 251.831 49.5799C244.681 49.5799 238.475 51.0446 233.212 53.974C227.949 56.9034 223.579 60.7514 220.104 65.5179C216.628 70.2844 214.046 75.6963 212.358 81.7538C210.67 87.8112 209.826 94.0176 209.826 100.373C209.826 109.707 212.383 117.08 217.497 122.492C222.611 127.904 229.835 130.61 239.17 130.61C243.936 130.61 248.38 129.692 252.501 127.855C256.622 126.018 259.874 123.014 262.257 118.843L262.555 119.141Z" fill-rule="evenodd"/>
<path clip-path="url(#TextBounds)" d="M322.286 93.3721L300.092 93.3721C300.092 106.381 303.741 115.914 311.04 121.971C318.338 128.029 329.435 131.057 344.331 131.057C349.395 131.057 354.509 130.437 359.673 129.195C364.836 127.954 369.479 125.943 373.6 123.163C377.721 120.382 381.097 116.758 383.729 112.289C386.36 107.821 387.676 102.409 387.676 96.0533C387.676 91.2868 386.981 87.265 385.591 83.9881C384.2 80.7111 382.239 77.9306 379.707 75.6467C377.175 73.3628 374.171 71.5008 370.695 70.061C367.22 68.6211 363.397 67.355 359.226 66.2627C357.438 65.8654 355.105 65.3441 352.225 64.6986C349.345 64.0532 346.54 63.1595 343.809 62.0175C341.078 60.8755 338.745 59.4356 336.808 57.6979C334.872 55.9601 333.904 53.8002 333.904 51.2184C333.904 48.7358 334.45 46.6505 335.542 44.9624C336.635 43.2742 338.075 41.9088 339.862 40.8662C341.649 39.8235 343.66 39.0787 345.895 38.6319C348.129 38.185 350.338 37.9616 352.523 37.9616C355.204 37.9616 357.736 38.2347 360.12 38.7808C362.503 39.327 364.563 40.2455 366.301 41.5364C368.039 42.8274 369.38 44.4907 370.323 46.5264C371.266 48.5621 371.688 51.0694 371.589 54.0485L393.783 54.0485C393.783 47.8918 392.715 42.6536 390.58 38.334C388.446 34.0143 385.566 30.4643 381.941 27.6838C378.317 24.9034 374.096 22.8925 369.28 21.6512C364.464 20.4099 359.325 19.7893 353.864 19.7893C348.7 19.7893 343.611 20.4099 338.596 21.6512C333.581 22.8925 329.088 24.8289 325.116 27.4604C321.144 30.0919 317.916 33.493 315.434 37.6637C312.951 41.8344 311.71 46.8988 311.71 52.8569C311.71 57.4248 312.479 61.2976 314.019 64.4752C315.558 67.6529 317.594 70.334 320.126 72.5187C322.658 74.7033 325.513 76.4908 328.691 77.881C331.868 79.2712 335.145 80.4628 338.521 81.4559C341.798 82.4489 345.051 83.3923 348.278 84.286C351.505 85.1797 354.385 86.2224 356.917 87.414C359.449 88.6056 361.51 90.0207 363.099 91.6592C364.687 93.2976 365.482 95.4078 365.482 97.9897C365.482 100.671 364.861 102.955 363.62 104.841C362.379 106.728 360.79 108.267 358.853 109.459C356.917 110.651 354.757 111.544 352.374 112.14C349.991 112.736 347.608 113.034 345.224 113.034C341.848 113.034 338.72 112.711 335.84 112.066C332.96 111.42 330.478 110.353 328.393 108.863C326.307 107.374 324.718 105.363 323.626 102.831C322.534 100.298 322.087 97.1456 322.286 93.3721Z" fill-rule="evenodd"/>
<path clip-path="url(#TextBounds)" d="M455.301 81.9027L419.999 81.9027C420.793 79.7181 421.761 77.6327 422.903 75.6467C424.045 73.6607 425.46 71.9229 427.148 70.4333C428.837 68.9438 430.823 67.7522 433.107 66.8585C435.391 65.9647 438.022 65.5179 441.001 65.5179C444.079 65.5179 446.562 65.9896 448.449 66.9329C450.335 67.8763 451.775 69.1424 452.768 70.7312C453.761 72.3201 454.432 74.0827 454.779 76.0191C455.127 77.9555 455.301 79.9167 455.301 81.9027ZM417.764 95.3085L474.516 95.3085C475.31 91.0385 475.707 87.0168 475.707 83.2433C475.707 77.6824 474.838 72.7918 473.1 68.5714C471.363 64.3511 468.93 60.8259 465.802 57.9958C462.674 55.1657 458.9 53.0555 454.481 51.6653C450.062 50.275 445.172 49.5799 439.809 49.5799C433.256 49.5799 427.347 50.8957 422.084 53.5272C416.821 56.1587 412.377 59.6839 408.753 64.1028C405.128 68.5218 402.323 73.5862 400.337 79.296C398.351 85.0059 397.358 90.9392 397.358 97.0959C397.358 102.657 398.177 107.523 399.816 111.693C401.454 115.864 403.763 119.364 406.742 122.195C409.721 125.025 413.321 127.135 417.541 128.525C421.761 129.915 426.453 130.61 431.617 130.61C437.178 130.61 442.069 130.064 446.289 128.972C450.509 127.88 454.208 126.216 457.386 123.982C460.564 121.748 463.294 118.992 465.578 115.715C467.862 112.438 469.848 108.615 471.536 104.246L450.385 104.246C449.591 105.437 448.722 106.679 447.778 107.97C446.835 109.26 445.743 110.402 444.502 111.395C443.26 112.388 441.82 113.208 440.182 113.853C438.543 114.499 436.681 114.821 434.596 114.821C428.837 114.821 424.567 113.431 421.786 110.651C419.006 107.87 417.615 104.246 417.615 99.7771L417.615 97.8407C417.615 97.4435 417.615 97.0463 417.615 96.6491C417.615 96.2519 417.665 95.805 417.764 95.3085Z" fill-rule="evenodd"/>
<path clip-path="url(#TextBounds)" d="M490.305 75.0509L510.115 75.0509C510.81 71.1781 512.648 68.3232 515.627 66.4861C518.606 64.649 521.982 63.7305 525.755 63.7305C527.146 63.7305 528.61 63.8546 530.15 64.1028C531.689 64.3511 533.129 64.8228 534.469 65.5179C535.81 66.213 536.927 67.1564 537.821 68.348C538.714 69.5396 539.161 71.1285 539.161 73.1145C539.161 75.597 538.565 77.459 537.374 78.7002C536.182 79.9415 534.37 80.8849 531.937 81.5303C529.504 82.1758 526.451 82.6475 522.776 82.9454C519.102 83.2433 514.783 83.6902 509.817 84.286C500.483 85.3783 493.259 88.1588 488.145 92.6273C483.031 97.0959 480.474 103.054 480.474 110.502C480.474 113.183 480.97 115.74 481.963 118.173C482.956 120.606 484.495 122.741 486.581 124.578C488.666 126.415 491.273 127.88 494.401 128.972C497.529 130.064 501.178 130.61 505.349 130.61C509.817 130.61 514.137 129.841 518.308 128.302C522.478 126.762 526.004 124.354 528.883 121.077L528.883 128.674L550.035 128.674C549.538 126.986 549.29 125.496 549.29 124.205C549.29 122.716 549.364 120.953 549.513 118.918C549.662 116.882 549.935 115.169 550.333 113.779L557.184 82.7964C558.277 77.8313 558.823 73.5117 558.823 69.8375C558.922 65.4682 557.954 61.9678 555.918 59.3363C553.883 56.7048 551.276 54.6691 548.098 53.2293C544.921 51.7894 541.445 50.8212 537.672 50.3247C533.898 49.8282 530.274 49.5799 526.798 49.5799C522.429 49.5799 518.208 50.0019 514.137 50.846C510.066 51.6901 506.391 53.1051 503.115 55.0912C499.838 57.0772 497.057 59.6839 494.773 62.9112C492.489 66.1385 491 70.1851 490.305 75.0509ZM534.99 91.7336L532.905 99.1813C532.309 101.267 531.565 103.352 530.671 105.437C529.777 107.523 528.561 109.385 527.021 111.023C525.482 112.662 523.596 114.002 521.361 115.045C519.127 116.087 516.371 116.609 513.094 116.609C510.016 116.609 507.31 115.889 504.976 114.449C502.643 113.009 501.476 110.849 501.476 107.97C501.476 105.586 501.923 103.625 502.817 102.086C503.71 100.547 504.877 99.3302 506.317 98.4365C507.757 97.5428 509.42 96.8725 511.307 96.4256C513.194 95.9788 515.13 95.6561 517.116 95.4575C520.194 95.2588 523.273 94.9858 526.351 94.6382C529.43 94.2907 532.309 93.3225 534.99 91.7336Z" fill-rule="evenodd"/>
<path clip-path="url(#TextBounds)" d="M581.166 51.6653L565.228 128.674L586.23 128.674L593.38 94.5637C594.075 91.2868 594.994 88.1339 596.136 85.1052C597.278 82.0765 598.817 79.3705 600.753 76.9873C602.69 74.604 605.073 72.7173 607.903 71.3271C610.733 69.9368 614.184 69.2417 618.255 69.2417C619.745 69.2417 621.234 69.3907 622.724 69.6886C624.213 69.9865 625.703 70.2844 627.192 70.5823L631.512 50.0268C629.327 49.7289 627.143 49.5799 624.958 49.5799C619.298 49.5799 614.06 50.9453 609.244 53.6761C604.427 56.4069 600.828 60.4535 598.444 65.8158L598.147 65.5179L601.275 51.6653L581.166 51.6653Z" fill-rule="evenodd"/>
<path clip-path="url(#TextBounds)" d="M680.518 78.3279L701.669 78.3279C701.57 73.2634 700.601 68.8942 698.764 65.22C696.927 61.5458 694.445 58.5667 691.317 56.2828C688.189 53.9989 684.539 52.3107 680.369 51.2184C676.198 50.1261 671.779 49.5799 667.112 49.5799C660.161 49.5799 654.004 50.846 648.642 53.3782C643.279 55.9104 638.736 59.386 635.012 63.8049C631.289 68.2239 628.459 73.3379 626.522 79.1471C624.586 84.9563 623.618 91.1378 623.618 97.6917C623.618 109.012 626.621 117.329 632.629 122.641C638.637 127.954 647.053 130.61 657.877 130.61C668.006 130.61 676.372 128.004 682.975 122.79C689.579 117.577 694.47 110.154 697.647 100.522L676.496 100.522C675.9 102.409 675.13 104.221 674.187 105.959C673.244 107.696 672.052 109.211 670.612 110.502C669.172 111.793 667.534 112.835 665.697 113.63C663.86 114.424 661.75 114.821 659.366 114.821C656.685 114.821 654.426 114.374 652.589 113.481C650.752 112.587 649.237 111.395 648.046 109.906C646.854 108.416 646.01 106.654 645.514 104.618C645.017 102.582 644.769 100.423 644.769 98.1386C644.769 94.8616 645.141 91.3116 645.886 87.4885C646.631 83.6653 647.847 80.1153 649.535 76.8383C651.224 73.5614 653.458 70.8554 656.238 68.7204C659.019 66.5854 662.395 65.5179 666.367 65.5179C671.134 65.5179 674.684 66.5109 677.017 68.497C679.351 70.483 680.518 73.76 680.518 78.3279Z" fill-rule="evenodd"/>
<path clip-path="url(#TextBounds)" d="M725.352 22.3215L703.307 128.674L724.31 128.674L732.949 87.7119C733.545 85.0307 734.414 82.3992 735.556 79.8174C736.698 77.2355 738.138 74.9516 739.875 72.9655C741.613 70.9795 743.699 69.3658 746.131 68.1246C748.564 66.8833 751.37 66.2627 754.547 66.2627C757.03 66.2627 759.339 67.0074 761.474 68.497C763.609 69.9865 764.676 71.8732 764.676 74.1572C764.676 75.2495 764.502 76.7887 764.155 78.7747C763.807 80.7608 763.534 82.3496 763.336 83.5412L753.951 128.674L775.103 128.674L784.636 83.5412C784.735 82.8461 784.909 81.9276 785.157 80.7856C785.405 79.6436 785.654 78.4272 785.902 77.1362C786.15 75.8453 786.374 74.5792 786.572 73.3379C786.771 72.0966 786.87 71.0788 786.87 70.2844C786.87 56.4814 779.373 49.5799 764.378 49.5799C760.903 49.5799 757.775 49.9523 754.994 50.6971C752.214 51.4418 749.781 52.3604 747.695 53.4527C745.61 54.545 743.823 55.7366 742.333 57.0276C740.844 58.3185 739.702 59.5101 738.907 60.6024L738.609 60.6024L746.504 22.3215L725.352 22.3215Z" fill-rule="evenodd"/>
</g>
<g fill="#000000" opacity="1" stroke="none">
<path clip-path="url(#TextBounds_2)" d="M860.487 39.1558L855.843 76.8502L849.357 76.8502L854.002 39.1558L843.552 39.1558L844.288 33.1236L871.221 33.1236L870.484 39.1558L860.487 39.1558Z" fill-rule="evenodd"/>
<path clip-path="url(#TextBounds_2)" d="M849.273 142.921C849.273 144.885 849.952 146.499 851.312 147.764C852.69 149.029 854.446 149.662 856.579 149.662C859.506 149.662 861.752 148.567 863.319 146.377L867.992 148.954C866.369 151.144 864.698 152.673 862.98 153.542C861.243 154.429 859.071 154.873 856.466 154.873C852.331 154.873 849.037 153.655 846.582 151.219C844.128 148.784 842.9 145.527 842.9 141.449C842.9 137.182 844.25 133.613 846.95 130.744C849.631 127.893 853.02 126.467 857.117 126.467C861.082 126.467 864.207 127.751 866.491 130.319C868.814 132.905 869.975 136.37 869.975 140.712C869.975 141.166 869.946 141.902 869.89 142.921L849.273 142.921ZM863.631 137.88C862.97 133.765 860.695 131.707 856.806 131.707C853.124 131.707 850.726 133.765 849.612 137.88L863.631 137.88Z" fill-rule="evenodd"/>
<path clip-path="url(#TextBounds_2)" d="M859.694 216.866L869.295 231.196L862.045 231.196L855.73 221.057L847.12 231.196L839.049 231.196L852.586 216.356L844.628 204.518L851.793 204.518L856.523 212.165L862.895 204.518L870.881 204.518L859.694 216.866Z" fill-rule="evenodd"/>
<path clip-path="url(#TextBounds_2)" d="M852.133 287.497L849.556 308.369L843.297 308.369L845.874 287.497L842.334 287.497L843.042 281.691L846.582 281.691L848.111 269.315L854.37 269.315L852.841 281.691L858.618 281.691L857.91 287.497L852.133 287.497Z" fill-rule="evenodd"/>
</g>
<g fill="#000000" opacity="1" stroke="none">
<path clip-path="url(#TextBounds_3)" d="M550.295 432.165L545.651 469.86L539.165 469.86L543.81 432.165L533.36 432.165L534.096 426.133L561.028 426.133L560.292 432.165L550.295 432.165Z" fill-rule="evenodd"/>
<path clip-path="url(#TextBounds_3)" d="M536.256 535.931C536.256 537.895 536.936 539.509 538.295 540.774C539.673 542.039 541.429 542.671 543.563 542.671C546.489 542.671 548.736 541.576 550.303 539.386L554.976 541.963C553.352 544.153 551.681 545.683 549.963 546.551C548.226 547.439 546.055 547.882 543.449 547.882C539.315 547.882 536.02 546.664 533.566 544.229C531.111 541.793 529.884 538.537 529.884 534.458C529.884 530.191 531.234 526.623 533.934 523.753C536.615 520.902 540.004 519.477 544.101 519.477C548.066 519.477 551.19 520.761 553.475 523.329C555.797 525.915 556.958 529.38 556.958 533.722C556.958 534.175 556.93 534.912 556.873 535.931L536.256 535.931ZM550.614 530.89C549.954 526.774 547.679 524.716 543.789 524.716C540.108 524.716 537.71 526.774 536.596 530.89L550.614 530.89Z" fill-rule="evenodd"/>
<path clip-path="url(#TextBounds_3)" d="M546.678 609.875L556.278 624.205L549.028 624.205L542.713 614.067L534.104 624.205L526.032 624.205L539.569 609.366L531.611 597.528L538.777 597.528L543.506 605.174L549.878 597.528L557.864 597.528L546.678 609.875Z" fill-rule="evenodd"/>
<path clip-path="url(#TextBounds_3)" d="M546.061 680.506L543.484 701.378L537.225 701.378L539.802 680.506L536.262 680.506L536.97 674.701L540.51 674.701L542.04 662.325L548.298 662.325L546.769 674.701L552.547 674.701L551.839 680.506L546.061 680.506Z" fill-rule="evenodd"/>
</g>
</g>
</svg>
